# xmcd
#
# Track frame offsets: 
#        150
#        60912
#        111382
#        152480
#        196175
#        223397
#
# Disc length: 3031 seconds
#
# Revision: 0
# Processed by: cddbd v1.5.2PL0 Copyright (c) Steve Scherf et al.
# Submitted via: ExactAudioCopy v0.95b4
#
DISCID=4f0bd506
DTITLE=Matraca Berg - The Radio Special: "Sunday Morning to Saturday N
DTITLE=ight" [limited edition radio promotional CD] 
DYEAR=1997
DGENRE=Americana
TTITLE0=Program Open_Patty Loveless comment_Along For The Ride_Matraca
TTITLE0=Berg comments_Sunday Morning to Saturday Night_Suzy Bogguss c
TTITLE0=omm
TTITLE1=Matraca Berg comment_Good Ol' Girl_Matraca Berg comment_Back W
TTITLE1=hen We Were Beautiful_Deana Carter comment
TTITLE2=Unplugged session_Strawberry Wine_Cry On The Shoulder Of The R
TTITLE2=oad_Give Me Tonight_Faith Hill comment
TTITLE3=Unplugged session continues_Back In The Saddle_Matraca Berg co
TTITLE3=mment_That Train Don't Run_Trisha Yearwood comment_National Co
TTITLE3=mme
TTITLE4=Matraca Berg comment_Resurrection_Program Close
TTITLE5=Matraca Berg Promo
EXTD=
EXTT0=
EXTT1=
EXTT2=
EXTT3=
EXTT4=
EXTT5=
PLAYORDER=
